<?xml version="1.0" encoding="UTF-8"?>
<svg xmlns="http://www.w3.org/2000/svg" viewBox="0 0 128 128">
  <defs>
    <linearGradient id="bg" x1="0%" y1="0%" x2="100%" y2="100%">
      <stop offset="0%" style="stop-color:#1a1a2e"/>
      <stop offset="100%" style="stop-color:#0f0f23"/>
    </linearGradient>
    <linearGradient id="accent" x1="0%" y1="0%" x2="100%" y2="0%">
      <stop offset="0%" style="stop-color:#00d4ff"/>
      <stop offset="100%" style="stop-color:#0088cc"/>
    </linearGradient>
  </defs>
  
  <!-- Background circle -->
  <circle cx="64" cy="64" r="60" fill="url(#bg)" stroke="url(#accent)" stroke-width="3"/>
  
  <!-- Speaker icon -->
  <path d="M40 45 L52 45 L68 32 L68 96 L52 83 L40 83 Z" fill="url(#accent)"/>
  
  <!-- Sound waves -->
  <path d="M78 50 Q88 64 78 78" fill="none" stroke="url(#accent)" stroke-width="4" stroke-linecap="round"/>
  <path d="M86 40 Q100 64 86 88" fill="none" stroke="url(#accent)" stroke-width="4" stroke-linecap="round"/>
  
  <!-- EQ bars at bottom -->
  <rect x="32" y="100" width="6" height="12" rx="2" fill="#00d4ff" opacity="0.8"/>
  <rect x="42" y="95" width="6" height="17" rx="2" fill="#00d4ff" opacity="0.9"/>
  <rect x="52" y="98" width="6" height="14" rx="2" fill="#00d4ff" opacity="0.85"/>
  <rect x="62" y="92" width="6" height="20" rx="2" fill="#00d4ff"/>
  <rect x="72" y="96" width="6" height="16" rx="2" fill="#00d4ff" opacity="0.9"/>
  <rect x="82" y="99" width="6" height="13" rx="2" fill="#00d4ff" opacity="0.85"/>
  <rect x="92" y="102" width="6" height="10" rx="2" fill="#00d4ff" opacity="0.75"/>
</svg>
